<?xml version="1.0" standalone="no"?>
<!DOCTYPE svg PUBLIC "-//W3C//DTD SVG 20010904//EN"
 "http://www.w3.org/TR/2001/REC-SVG-20010904/DTD/svg10.dtd">
<svg version="1.0" xmlns="http://www.w3.org/2000/svg"
 width="512.000000pt" height="512.000000pt" viewBox="0 0 512.000000 512.000000"
 preserveAspectRatio="xMidYMid meet">
<metadata>
Created by potrace 1.14, written by Peter Selinger 2001-2017
</metadata>
<g transform="translate(0.000000,512.000000) scale(0.100000,-0.100000)"
fill="#000000" stroke="none">
<path d="M1857 4968 c-95 -20 -200 -108 -277 -233 -48 -76 -100 -179 -100
-196 0 -5 -5 -9 -10 -9 -6 0 -9 -3 -8 -7 1 -5 -5 -21 -12 -38 -7 -16 -14 -32
-15 -35 -5 -20 -28 -89 -35 -105 -8 -16 -39 -117 -46 -147 -1 -5 -2 -9 -4 -10
-1 -2 -3 -10 -5 -18 -2 -8 -14 -60 -28 -115 l-24 -100 -59 1 c-33 1 -95 10
-139 19 -44 9 -87 18 -96 20 -8 2 -32 10 -53 19 -20 8 -40 15 -44 14 -4 -1
-29 8 -55 20 -27 12 -53 22 -58 22 -5 0 -9 4 -9 9 0 5 -15 14 -32 22 -18 7
-37 19 -41 26 -4 7 -13 13 -18 13 -6 0 -57 46 -114 102 -57 56 -112 106 -122
111 -10 6 -20 13 -23 16 -19 22 -119 53 -170 54 -52 0 -117 -19 -137 -39 -7
-7 -23 -21 -36 -31 -61 -49 -96 -200 -67 -296 16 -56 75 -179 118 -247 45 -72
135 -190 144 -190 5 0 8 -4 8 -10 0 -8 41 -49 164 -165 25 -25 134 -105 141
-105 2 0 17 -12 31 -25 15 -14 33 -25 40 -25 8 0 14 -4 14 -9 0 -5 14 -14 30
-21 27 -11 41 -30 22 -30 -4 0 -14 -15 -21 -32 -8 -18 -21 -39 -28 -46 -7 -8
-11 -18 -8 -23 4 -5 1 -9 -4 -9 -6 0 -11 -6 -11 -13 0 -7 -14 -39 -31 -70 -17
-31 -28 -57 -24 -57 4 0 -1 -7 -9 -16 -9 -8 -16 -24 -16 -34 0 -10 -5 -22 -10
-25 -6 -4 -8 -11 -5 -16 4 -5 2 -9 -3 -9 -5 0 -9 -6 -10 -12 -3 -35 -8 -54
-14 -58 -4 -3 -19 -50 -33 -104 -32 -117 -30 -108 -55 -256 -19 -111 -29 -419
-16 -505 2 -11 7 -51 11 -90 5 -38 9 -72 10 -75 1 -3 5 -25 9 -50 5 -25 15
-70 23 -100 8 -30 17 -66 20 -80 2 -14 8 -34 13 -45 4 -11 20 -56 35 -100 16
-44 33 -89 39 -100 5 -11 11 -22 11 -25 2 -15 31 -70 37 -70 5 0 8 -7 8 -16 0
-8 12 -36 26 -62 55 -99 79 -137 86 -140 4 -2 8 -10 8 -18 0 -8 5 -14 10 -14
6 0 10 -5 10 -11 0 -9 67 -103 131 -184 45 -55 224 -230 299 -291 83 -67 200
-148 270 -187 76 -42 180 -96 183 -95 1 0 22 -9 47 -20 40 -18 137 -55 150
-58 3 0 12 -3 20 -6 30 -12 115 -37 140 -41 14 -3 32 -8 40 -11 18 -7 44 -11
175 -33 150 -24 514 -23 644 2 10 2 35 6 56 9 86 14 334 83 349 97 6 5 18 9
28 9 10 0 18 4 18 10 0 5 3 9 8 8 4 -1 23 4 42 11 19 8 37 15 40 15 3 1 15 7
28 14 12 7 22 9 22 5 0 -4 4 -3 8 3 10 15 72 47 72 37 0 -5 4 -3 8 3 4 7 30
24 57 39 70 39 191 120 250 168 28 23 57 47 65 53 28 23 225 220 254 254 53
65 133 175 167 230 18 30 38 58 43 62 6 4 7 8 2 8 -5 0 -2 8 6 18 60 70 247
556 224 579 -3 4 -2 11 3 17 11 14 36 158 46 266 6 66 6 339 0 393 -21 186
-72 421 -106 489 -5 10 -9 25 -9 33 0 8 -4 15 -10 15 -5 0 -10 8 -10 19 0 10
-8 36 -17 57 -9 22 -17 41 -18 44 0 3 -15 33 -33 68 -17 34 -28 62 -24 62 4 0
2 4 -4 8 -5 4 -24 33 -42 65 -25 43 -29 57 -17 57 8 0 15 4 15 9 0 5 17 17 37
26 37 18 49 26 84 58 10 9 19 14 19 11 0 -20 218 181 297 274 31 37 62 73 69
80 7 6 16 21 19 32 3 11 11 20 17 20 6 0 9 3 5 6 -3 3 3 16 14 28 11 11 45 71
76 133 50 102 56 119 60 195 6 98 -16 171 -68 226 -26 28 -68 53 -89 54 -3 0
-11 4 -17 10 -7 6 -20 8 -28 4 -8 -3 -15 -2 -15 3 0 20 -107 -3 -173 -36 -61
-30 -102 -65 -174 -145 -23 -25 -44 -44 -46 -41 -3 2 -8 -5 -12 -16 -3 -12
-10 -19 -15 -16 -4 3 -19 -6 -31 -20 -13 -13 -30 -25 -36 -25 -7 0 -13 -4 -13
-8 0 -10 -40 -32 -87 -47 -13 -4 -23 -12 -23 -18 0 -6 -3 -8 -6 -4 -3 3 -25
-3 -47 -12 -36 -16 -130 -42 -201 -57 -43 -9 -103 -16 -150 -18 l-48 -1 -30
120 c-16 66 -31 125 -32 130 -1 6 -4 15 -7 20 -3 6 -12 33 -19 60 -7 28 -16
55 -20 60 -7 10 -18 49 -20 70 -1 6 -8 20 -16 33 -8 12 -12 22 -9 22 3 0 -5
20 -19 44 -13 24 -22 47 -19 50 4 3 0 6 -7 6 -7 0 -11 3 -8 6 3 3 -12 37 -33
76 -21 39 -39 74 -39 79 0 4 -3 9 -7 11 -5 2 -28 29 -52 61 -25 33 -63 74 -85
92 -46 37 -125 77 -137 70 -4 -3 -10 -2 -13 3 -6 9 -202 6 -226 -4 -8 -3 -28
-8 -45 -11 -28 -4 -118 -34 -190 -63 -16 -6 -31 -11 -33 -10 -1 0 -15 -6 -30
-14 -71 -39 -221 -54 -276 -28 -22 11 -137 56 -146 58 -3 0 -18 6 -33 12 -16
7 -33 12 -38 12 -5 0 -9 4 -9 9 0 5 -8 8 -17 6 -10 -1 -25 1 -34 6 -8 4 -29
10 -45 13 -16 2 -29 5 -29 6 0 11 -204 18 -248 8z"/>
</g>
</svg>
